<svg xmlns="http://www.w3.org/2000/svg" xmlns:xlink="http://www.w3.org/1999/xlink" width="1000" height="1000" version="1.1" viewBox="0 0 1000 1000"><title>logo avatar</title><desc>Created with Sketch.</desc><g id="logo-avatar" fill="none" fill-rule="evenodd" stroke="none" stroke-width="1"><g id="3-x-3-diags" fill-rule="nonzero" transform="translate(269.000000, 213.000000)"><path id="Path-4" stroke="#BCEDC4" stroke-linecap="round" stroke-linejoin="round" stroke-width="40" d="M24.953125,289.765625 L225.683594,490.496094"/><path id="Path-4" stroke="#BCEDC4" stroke-linecap="round" stroke-linejoin="round" stroke-width="40" d="M24.953125,88.765625 L225.683594,289.496094" transform="translate(125.318359, 189.130859) scale(-1, 1) translate(-125.318359, -189.130859)"/><path id="Path-4" stroke="#BCEDC4" stroke-linecap="round" stroke-linejoin="round" stroke-width="40" d="M224.953125,89.765625 L425.683594,290.496094" transform="translate(325.318359, 190.130859) scale(-1, 1) translate(-325.318359, -190.130859)"/><path id="Path-4" stroke="#BCEDC4" stroke-linecap="round" stroke-linejoin="round" stroke-width="40" d="M224.953125,287.765625 L425.683594,488.496094" transform="translate(325.318359, 388.130859) scale(-1, 1) translate(-325.318359, -388.130859)"/><circle id="Oval" cx="25" cy="89" r="25" fill="#42A7B6"/><circle id="Oval" cx="225" cy="89" r="25" fill="#42A7B6"/><circle id="Oval" cx="425" cy="89" r="25" fill="#42A7B6"/><circle id="Oval" cx="25" cy="289" r="25" fill="#42A7B6"/><circle id="Oval" cx="225" cy="289" r="25" fill="#42A7B6"/><circle id="Oval" cx="425" cy="289" r="25" fill="#42A7B6"/><circle id="Oval" cx="425" cy="489" r="25" fill="#42A7B6"/><circle id="Oval" cx="25" cy="489" r="25" fill="#42A7B6"/><rect id="Rectangle" width="110" height="110" x="170" y="434" fill="#2A2DDE" stroke="#2A2DDE" stroke-width="70"/><circle id="Oval" cx="225" cy="489" r="25" fill="#FFF"/><circle id="Oval-3-Copy" cx="425" cy="90" r="57.5" fill="#FFF" stroke="#FB8143" stroke-width="65"/></g></g></svg>